<?xml version="1.0" encoding="UTF-8"?>
<!DOCTYPE svg PUBLIC "-//W3C//DTD SVG 1.1//EN" "http://www.w3.org/Graphics/SVG/1.1/DTD/svg11.dtd">
<!-- Creator: CorelDRAW -->
<svg xmlns="http://www.w3.org/2000/svg" xml:space="preserve" width="0.131835in" height="0.131835in" version="1.1" shape-rendering="geometricPrecision" text-rendering="geometricPrecision" image-rendering="optimizeQuality" fill-rule="evenodd" clip-rule="evenodd"
viewBox="0 0 131.83 131.83"
 xmlns:xlink="http://www.w3.org/1999/xlink"
 xmlns:xodm="http://www.corel.com/coreldraw/odm/2003">
 <defs>
     <radialGradient id="id0" gradientUnits="userSpaceOnUse" gradientTransform="matrix(-1.60067E+000 1.62548 -1.62548E+000 -1.60075E+000 315 -106)" cx="105.46" cy="25.05" r="47.01" fx="105.46" fy="25.05">
      <stop offset="0" stop-opacity="1" stop-color="#7DC4E3"/>
      <stop offset="1" stop-opacity="1" stop-color="#2999CE"/>
     </radialGradient>
 </defs>
 <g id="Layer_x0020_1">
  <metadata id="CorelCorpID_0Corel-Layer"/>
  <g id="_105553981003072">
   <g>
    <circle fill="url(#id0)" cx="65.92" cy="65.92" r="65.92"/>
    <path fill="#332D2B" fill-opacity="0.501961" d="M65.92 131.83c9.23,0 18.02,-1.9 25.99,-5.33 -7.13,2.65 -14.85,4.09 -22.91,4.09 -36.41,0 -65.92,-29.51 -65.92,-65.92 0,-27.17 16.44,-50.5 39.93,-60.59 -25.11,9.31 -43.01,33.48 -43.01,61.83 0,36.41 29.51,65.92 65.92,65.92z"/>
   </g>
   <g>
    <path fill="#332D2B" fill-opacity="0.501961" d="M46.44 80.48c-0.39,-1.36 -0.53,-1.38 -3.42,-1.85l-9.45 -1.53c-2.83,-0.46 -3.14,-0.99 -2.48,-3.75 0.08,-0.24 0.15,-0.44 0.22,-0.64 0.96,-2.77 1.93,-5.54 2.89,-8.3 1.31,-3.76 2.14,-2.77 -0.51,-5.84l-6.26 -7.25c-1.85,-2.14 -1.76,-2.78 0.52,-4.47 0.22,-0.13 0.4,-0.24 0.58,-0.34 2.52,-1.5 5.03,-3 7.55,-4.51 3.41,-2.04 3.41,-0.74 3.36,-4.8l-0.13 -9.57c-0.04,-2.87 0.43,-3.26 3.27,-3.09 0.26,0.04 0.46,0.07 0.67,0.1 2.89,0.47 5.78,0.94 8.67,1.4 3.93,0.63 3.1,1.63 5.67,-1.52l6.05 -7.42c1.81,-2.22 2.43,-2.22 4.51,-0.25 0.15,0.18 0.29,0.33 0.42,0.49 1.92,2.21 3.83,4.43 5.75,6.65 2.6,3.01 1.33,3.24 5.31,2.48l9.41 -1.8c2.81,-0.54 3.29,-0.15 3.61,2.67 0.01,0.26 0.01,0.47 0.02,0.68 0.04,2.93 0.08,5.86 0.13,8.79 0.06,3.98 -1.06,3.33 2.48,5.31l8.36 4.67c2.49,1.39 2.61,2 1.04,4.38 -0.17,0.2 -0.3,0.37 -0.43,0.52 -1.85,2.28 -3.7,4.55 -5.55,6.81 -2.51,3.08 -2.95,1.87 -1.52,5.66l3.4 8.95c1.02,2.68 0.72,3.21 -2.01,4.02 -0.25,0.06 -0.46,0.09 -0.67,0.13 -2.88,0.55 -5.76,1.1 -8.63,1.65 -2.77,0.53 -3.35,0.07 -3.94,1.13 0.23,0.1 0.42,0.29 0.53,0.54l10.41 25.06c1.34,3.23 2.99,6.23 -2.46,3.52 -12.49,-6.2 -10.86,-11 -17.58,2.54 -3.12,6.28 -3.41,6.4 -5.67,-0.34l-4.62 -13.77 -4.62 13.77c-2.26,6.74 -2.55,6.63 -5.67,0.34 -6.72,-13.54 -5.09,-8.74 -17.58,-2.54 -5.45,2.7 -3.8,-0.29 -2.46,-3.52l10.21 -24.6c0.12,-0.3 0.36,-0.5 0.65,-0.58zm19.48 -46.45c-12.01,0 -21.74,9.74 -21.74,21.74 0,12.01 9.74,21.74 21.74,21.74 12.01,0 21.75,-9.74 21.75,-21.74 0,-12.01 -9.74,-21.74 -21.75,-21.74zm0 0.78c11.58,0 20.97,9.39 20.97,20.97 0,11.58 -9.39,20.96 -20.97,20.96 -11.57,0 -20.96,-9.39 -20.96,-20.96 0,-11.58 9.39,-20.97 20.96,-20.97zm0.03 9.39c-1.17,2.32 -2.35,4.64 -3.52,6.96 -0.15,0.29 -0.4,0.48 -0.72,0.54l-8.07 1.44c1.84,1.82 3.68,3.65 5.52,5.48 0.23,0.23 0.33,0.53 0.28,0.85l-1.13 8.12c2.31,-1.19 4.61,-2.37 6.92,-3.56 0.29,-0.15 0.6,-0.15 0.89,-0.01l7.37 3.58c-0.42,-2.56 -0.83,-5.12 -1.24,-7.67 -0.05,-0.32 0.04,-0.62 0.27,-0.86l5.69 -5.91c-2.56,-0.39 -5.12,-0.79 -7.69,-1.19 -0.32,-0.05 -0.58,-0.23 -0.73,-0.52l-3.85 -7.25z"/>
    <g>
     <path fill="white" d="M37.51 105.03l10.21 -24.6c0.11,0.37 0.26,0.81 0.46,1.33 1.04,2.74 2.08,5.48 3.13,8.22 0.07,0.2 0.15,0.39 0.24,0.63 1.27,2.54 1.85,2.74 4.31,1.28l8.22 -4.9 0.56 -0.33 0 -0 0.44 -0.26 0.07 -0.04c1.31,-0.75 1.67,-0.81 2.38,-0.38l0.02 0.02c0.49,0.3 1.14,0.82 2.37,1.51 2.56,1.43 5.12,2.85 7.68,4.28 0.18,0.1 0.36,0.2 0.59,0.33 2.61,1.13 3.19,0.91 4.13,-1.79l3.15 -9.04 0.46 -1.31 10.41 25.06c1.45,3.5 2.43,3.99 -1.09,2.24 -13.25,-6.58 -11.92,-11.12 -18.93,2.99 -2.67,5.37 -1.92,5.46 -3.83,-0.22l-5.57 -16.59 -5.57 16.59c-1.91,5.67 -1.16,5.58 -3.83,0.22 -7,-14.11 -5.67,-9.57 -18.93,-2.99 -3.52,1.75 -2.54,1.25 -1.09,-2.24z"/>
     <path fill="white" d="M68.4 16.49c0.14,0.16 0.27,0.32 0.41,0.48 1.92,2.22 3.83,4.43 5.75,6.65 2.91,3.37 1.79,3.66 6.26,2.81l9.41 -1.8c2.28,-0.44 2.19,-0.3 2.43,1.76 0,0.21 0.01,0.42 0.01,0.63 0.04,2.93 0.08,5.86 0.13,8.79 0.07,4.46 -0.98,3.95 2.99,6.17l8.36 4.67c2.03,1.13 1.87,1.18 0.73,2.91 -0.13,0.16 -0.26,0.32 -0.4,0.49 -1.85,2.27 -3.7,4.54 -5.55,6.81 -2.81,3.45 -3.29,2.39 -1.67,6.65l3.4 8.95c0.83,2.17 0.67,2.11 -1.31,2.7 -0.2,0.04 -0.41,0.08 -0.62,0.12 -2.88,0.55 -5.76,1.1 -8.63,1.65 -4.37,0.84 -4.06,-0.28 -5.56,4.02l-3.15 9.04c-0.76,2.2 -0.84,2.05 -2.74,1.22 -0.19,-0.11 -0.37,-0.2 -0.55,-0.31 -2.56,-1.43 -5.12,-2.86 -7.68,-4.28 -3.89,-2.17 -2.93,-2.83 -6.84,-0.5l-8.22 4.9c-2,1.19 -1.96,1.03 -2.88,-0.82 -0.07,-0.2 -0.15,-0.39 -0.22,-0.59 -1.04,-2.74 -2.08,-5.48 -3.13,-8.22 -1.59,-4.17 -0.43,-4.05 -4.92,-4.78l-9.45 -1.53c-2.3,-0.37 -2.16,-0.47 -1.68,-2.48 0.07,-0.2 0.14,-0.39 0.2,-0.59 0.96,-2.77 1.92,-5.54 2.89,-8.3 1.46,-4.21 2.28,-3.38 -0.7,-6.82l-6.26 -7.25c-1.52,-1.76 -1.35,-1.75 0.31,-2.98 0.18,-0.11 0.36,-0.21 0.54,-0.32 2.52,-1.5 5.03,-3 7.55,-4.51 3.82,-2.28 3.91,-1.12 3.85,-5.67l-0.13 -9.57c-0.03,-2.33 0.09,-2.21 2.16,-2.09 0.2,0.04 0.41,0.07 0.62,0.1 2.89,0.47 5.78,0.94 8.67,1.4 4.4,0.71 3.72,1.65 6.6,-1.87l6.05 -7.42c1.47,-1.8 1.49,-1.63 2.99,-0.21zm-0.86 25.66l4.15 7.81c2.82,0.44 5.65,0.87 8.47,1.31 0.91,0.14 0.77,0.57 0.24,1.11l-6.15 6.36c0.46,2.82 0.91,5.64 1.37,8.46 0.15,0.91 -0.3,0.91 -0.97,0.57l-7.95 -3.88c-2.54,1.31 -5.08,2.61 -7.62,3.92 -0.82,0.42 -0.95,-0 -0.85,-0.75l1.24 -8.76c-2.03,-2.01 -4.06,-4.03 -6.09,-6.04 -0.65,-0.65 -0.29,-0.91 0.45,-1.04l8.71 -1.54c1.29,-2.55 2.57,-5.1 3.86,-7.65 0.42,-0.83 0.78,-0.56 1.13,0.11zm-0.61 -7.36c11.03,0 19.97,8.94 19.97,19.97 0,11.02 -8.94,19.96 -19.97,19.96 -11.02,0 -19.96,-8.94 -19.96,-19.96 0,-11.03 8.94,-19.97 19.96,-19.97zm0 -2.78c12.56,0 22.75,10.18 22.75,22.74 0,12.56 -10.19,22.74 -22.75,22.74 -12.56,0 -22.74,-10.19 -22.74,-22.74 0,-12.56 10.19,-22.74 22.74,-22.74z"/>
    </g>
    <g>
     <path fill="#332D2B" fill-opacity="0.301961" d="M37.51 105.03l10.21 -24.6 0.33 1 -8.66 23.02c-0.11,0.27 -0.31,0.67 -0.51,1.08 0.09,-0.04 0.17,-0.09 0.23,-0.12 12.82,-6.36 12.68,-11.83 20.27,3.44 0.2,0.41 0.72,1.6 1.17,2.53 0.32,-0.97 0.67,-2.19 0.81,-2.62l5.57 -16.59c0.14,-0.41 0.51,-0.68 0.95,-0.68 0.44,0 0.81,0.27 0.95,0.68l5.57 16.59c0.14,0.43 0.49,1.65 0.81,2.62 0.45,-0.93 0.97,-2.12 1.17,-2.53 7.55,-15.19 7.45,-9.87 20.07,-3.55 1.39,3.24 2.22,3.67 -1.21,1.97 -13.25,-6.58 -11.92,-11.12 -18.93,2.99 -2.67,5.37 -1.92,5.46 -3.83,-0.22l-5.57 -16.59 -5.57 16.59c-1.91,5.67 -1.16,5.58 -3.83,0.22 -7,-14.11 -5.67,-9.57 -18.93,-2.99 -3.52,1.75 -2.54,1.25 -1.09,-2.24zm16.46 -12.27c0.49,-0.1 1.09,-0.4 1.88,-0.87l8.22 -4.9 0.56 -0.33 0 -0 0.44 -0.26 0.07 -0.04c1.16,-0.66 1.57,-0.79 2.15,-0.51 -0.24,0.1 -0.49,0.29 -0.72,0.42l-9.26 5.51c-1.46,0.87 -2.5,1.22 -3.35,0.98zm26.74 -0.06c0.68,-0.19 1.09,-0.92 1.6,-2.39l3.15 -9.04 0.46 -1.31 0.91 2.19 -2.62 7.52c-0.86,2.48 -1.74,3.35 -3.5,3.02z"/>
     <path fill="#332D2B" fill-opacity="0.301961" d="M78.41 26.81c0.56,-0.04 1.31,-0.19 2.4,-0.39l9.41 -1.8c0.91,-0.17 1.44,-0.26 1.77,-0.17 -0.24,0.07 -0.49,0.15 -0.62,0.18l-9.41 1.8c-1.77,0.34 -2.81,0.48 -3.55,0.38zm14.21 -0.65l0.02 0.23c0,0.21 0.01,0.42 0.01,0.63 0.04,2.93 0.08,5.86 0.13,8.79 0.02,1.23 -0.05,2.08 -0.07,2.72 -0.08,-0.8 0.06,-1.88 0.03,-3.67l-0.12 -8.69zm12.82 21.33c0.52,0.5 0.2,0.89 -0.58,2.07 -0.13,0.16 -0.26,0.32 -0.4,0.49 -1.85,2.27 -3.7,4.54 -5.55,6.81 -1.54,1.89 -2.38,2.43 -2.56,3.22 -0.37,-1.89 0.59,-2.18 2.74,-4.82 1.85,-2.27 3.7,-4.54 5.55,-6.81 0.13,-0.17 0.27,-0.33 0.37,-0.45 0.06,-0.09 0.26,-0.3 0.43,-0.5zm-4.58 25.58c0.55,1.56 0.24,1.56 -1.54,2.09 -0.2,0.04 -0.41,0.08 -0.62,0.12 -2.88,0.55 -5.76,1.1 -8.63,1.65 -4.37,0.84 -4.06,-0.28 -5.56,4.02l-3.15 9.04c-0.76,2.2 -0.84,2.05 -2.74,1.22 -0.19,-0.11 -0.37,-0.2 -0.55,-0.31 -2.56,-1.43 -5.12,-2.86 -7.68,-4.28 -3.89,-2.17 -2.93,-2.83 -6.84,-0.5l-8.22 4.9c-2,1.19 -1.96,1.03 -2.88,-0.82 -0.07,-0.2 -0.15,-0.39 -0.22,-0.59 -1.04,-2.74 -2.08,-5.48 -3.13,-8.22 -1.59,-4.17 -0.43,-4.05 -4.92,-4.78l-9.45 -1.53c-2.3,-0.37 -2.16,-0.47 -1.68,-2.48 0.07,-0.2 0.14,-0.39 0.2,-0.59 0.96,-2.77 1.92,-5.54 2.89,-8.3 1.46,-4.21 2.28,-3.38 -0.7,-6.82l-6.26 -7.25c-1.52,-1.76 -1.35,-1.75 0.31,-2.98 0.18,-0.11 0.36,-0.21 0.54,-0.32 2.52,-1.5 5.03,-3 7.55,-4.51 3.82,-2.28 3.91,-1.12 3.85,-5.67l-0.13 -9.57c-0.03,-2.22 0.07,-2.21 1.87,-2.1 -0.03,0.3 0.09,0.9 0.09,1.12l0.13 9.57c0.07,5.12 -0.37,4.18 -4.33,6.55 -2.52,1.5 -5.03,3.01 -7.55,4.51 -0.18,0.11 -0.36,0.22 -0.5,0.3 -0.15,0.12 -0.81,0.42 -0.94,0.61 0.08,0.22 0.68,0.7 0.84,0.89l6.26 7.25c3.35,3.88 2.41,3.44 0.89,7.8 -0.96,2.77 -1.93,5.54 -2.89,8.3 -0.07,0.2 -0.14,0.39 -0.19,0.54 -0.05,0.2 -0.35,0.85 -0.34,1.07 0.21,0.12 0.97,0.1 1.22,0.14l9.45 1.53c5.06,0.82 4.05,1.09 5.69,5.41 1.04,2.74 2.09,5.48 3.13,8.22 0.07,0.19 0.15,0.39 0.2,0.54 0.09,0.18 0.28,0.87 0.43,1.04 0.24,-0.04 0.81,-0.54 1.02,-0.67l8.22 -4.9c4.39,-2.61 3.81,-1.77 7.84,0.48 2.56,1.43 5.12,2.85 7.68,4.28 0.19,0.11 0.37,0.21 0.51,0.29 0.18,0.07 0.76,0.49 0.99,0.51 0.15,-0.18 0.27,-0.93 0.35,-1.17l3.15 -9.04c1.69,-4.83 1.78,-3.8 6.31,-4.67 2.88,-0.56 5.76,-1.1 8.63,-1.65 0.2,-0.04 0.41,-0.08 0.57,-0.11 0.13,-0.04 0.52,-0.09 0.81,-0.15zm-44.15 -46.44c0.7,-0.15 1.26,-0.81 2.64,-2.51l6.05 -7.42c1.14,-1.39 1.41,-1.61 2.17,-0.98 -0.17,0.24 -0.33,0.52 -0.43,0.64l-6.05 7.42c-2.2,2.7 -2.78,3.1 -4.37,2.84zm10.82 15.52l4.15 7.81c2.82,0.44 5.65,0.87 8.47,1.31 0.91,0.14 0.77,0.57 0.24,1.11l-6.15 6.36c0.46,2.82 0.91,5.64 1.37,8.46 0.06,0.34 0.03,0.55 -0.06,0.67 1.26,0.42 2.26,-0.24 2.01,-1.8 -0.43,-2.65 -0.86,-5.31 -1.29,-7.96l5.8 -6c1.11,-1.15 0.91,-2.53 -0.81,-2.79 -2.66,-0.41 -5.32,-0.82 -7.98,-1.23l-3.92 -7.37c-0.75,-1.42 -2.12,-1.64 -2.91,-0.09 -1.21,2.4 -2.43,4.8 -3.63,7.2l-8.22 1.45c-1.31,0.23 -2,1.14 -1.43,2.16 0.14,-0.09 0.36,-0.16 0.64,-0.21l8.71 -1.54c1.29,-2.55 2.57,-5.1 3.86,-7.65 0.42,-0.83 0.78,-0.56 1.13,0.11zm-0.19 22.06l-0.65 -0.31c-2.54,1.31 -5.08,2.61 -7.62,3.92l-0.16 0.08c0.4,0.2 0.94,0.17 1.58,-0.16l6.85 -3.53zm-9.11 2.78l1.23 -8.69 -0.16 -0.16 -1.11 7.81c-0.06,0.39 -0.04,0.74 0.04,1.04zm8.69 -32.2c0.38,0 0.76,0.02 1.14,0.04l-0.18 -0c-10.47,0 -18.96,8.5 -18.96,18.97 0,10.47 8.49,18.96 18.96,18.96 10.47,0 18.97,-8.49 18.97,-18.96l-0 -0.34c0.03,0.43 0.04,0.87 0.04,1.31 0,11.02 -8.94,19.96 -19.97,19.96 -11.02,0 -19.96,-8.94 -19.96,-19.96 0,-11.03 8.94,-19.97 19.96,-19.97zm0 -2.78c12.56,0 22.75,10.18 22.75,22.74 0,12.56 -10.19,22.74 -22.75,22.74l-0.33 -0c0.43,0.02 0.85,0.04 1.29,0.04 13.11,0 23.75,-10.63 23.75,-23.74 0,-13.11 -10.63,-23.74 -23.75,-23.74 -13.11,0 -23.74,10.63 -23.74,23.74 0,0.48 0.02,0.96 0.05,1.44l-0.01 -0.47c0,-12.56 10.19,-22.74 22.74,-22.74z"/>
    </g>
   </g>
  </g>
 </g>
</svg>
