<?xml version="1.0" encoding="UTF-8"?>
<!DOCTYPE svg PUBLIC "-//W3C//DTD SVG 1.1//EN" "http://www.w3.org/Graphics/SVG/1.1/DTD/svg11.dtd">
<!-- Creator: CorelDRAW -->
<svg xmlns="http://www.w3.org/2000/svg" xml:space="preserve" width="0.131835in" height="0.131835in" version="1.1" shape-rendering="geometricPrecision" text-rendering="geometricPrecision" image-rendering="optimizeQuality" fill-rule="evenodd" clip-rule="evenodd"
viewBox="0 0 32.73 32.73"
 xmlns:xlink="http://www.w3.org/1999/xlink"
 xmlns:xodm="http://www.corel.com/coreldraw/odm/2003">
 <defs>
    <radialGradient id="id0" gradientUnits="userSpaceOnUse" gradientTransform="matrix(-1.60067E+000 1.62548 -1.62548E+000 -1.60075E+000 78 -26)" cx="26.19" cy="6.22" r="11.67" fx="26.19" fy="6.22">
     <stop offset="0" stop-opacity="1" stop-color="#7DC4E3"/>
     <stop offset="1" stop-opacity="1" stop-color="#2999CE"/>
    </radialGradient>
 </defs>
 <g id="Layer_x0020_1">
  <metadata id="CorelCorpID_0Corel-Layer"/>
  <g id="_105554047913056">
   <circle fill="url(#id0)" cx="16.37" cy="16.37" r="16.37"/>
   <g>
    <path fill="#332D2B" fill-opacity="0.501961" d="M11.49 5.55l9.76 0c1.02,0 1.86,0.84 1.86,1.86l0 17.91c0,1.02 -0.84,1.86 -1.86,1.86l-9.76 0c-1.02,0 -1.86,-0.84 -1.86,-1.86l0 -17.91c0,-1.02 0.84,-1.86 1.86,-1.86z"/>
    <rect fill="white" x="9.97" y="5.55" width="13.14" height="21.39" rx="1.63" ry="1.63"/>
    <path fill="#332D2B" fill-opacity="0.301961" d="M11.6 5.55l9.88 0c0.56,0 1.06,0.29 1.35,0.72 -0.27,-0.2 -0.61,-0.32 -0.97,-0.32l-9.88 0c-0.9,0 -1.63,0.73 -1.63,1.63l0 18.12c0,0.34 0.1,0.65 0.28,0.91 -0.4,-0.3 -0.66,-0.78 -0.66,-1.31l0 -18.12c0,-0.9 0.73,-1.63 1.63,-1.63z"/>
    <path fill="#EFEFEF" d="M11.17 7.47l5.49 0 0 5.05 -5.49 0 0 -5.05zm0 6.95l5.49 0 0 2.27 -5.49 0 0 -2.27zm10.73 9.72l-10.73 0 0 0.88 10.73 0 0 -0.88zm0 -1.39l-10.73 0 0 0.88 10.73 0 0 -0.88zm0 -1.39l-10.73 0 0 0.88 10.73 0 0 -0.88zm0 -1.39l-10.73 0 0 0.88 10.73 0 0 -0.88zm0 -1.39l-10.73 0 0 0.88 10.73 0 0 -0.88zm0 -1.39l-10.73 0 0 0.88 10.73 0 0 -0.88zm0 -1.39l-4.76 0 0 0.88 4.76 0 0 -0.88zm0 -1.39l-4.76 0 0 0.88 4.76 0 0 -0.88zm0 -1.39l-10.73 0 0 0.88 10.73 0 0 -0.88zm0 -1.39l-4.76 0 0 0.88 4.76 0 0 -0.88zm0 -1.39l-4.76 0 0 0.88 4.76 0 0 -0.88zm0 -1.39l-4.76 0 0 0.88 4.76 0 0 -0.88zm0 -1.39l-4.76 0 0 0.88 4.76 0 0 -0.88z"/>
    <path fill="#332D2B" fill-opacity="0.301961" d="M11.17 7.47l5.49 0 0 5.05 -0.19 0 0 -4.82 -5.3 0 0 -0.23zm0 6.95l5.49 0 0 2.27 -0.19 0 0 -2.04 -5.3 0 0 -0.23zm10.73 9.72l-10.73 0 0 0.23 10.54 0 0 0.65 0.19 0 0 -0.88zm0 -1.39l-10.73 0 0 0.23 10.54 0 0 0.65 0.19 0 0 -0.88zm0 -1.39l-10.73 0 0 0.23 10.54 0 0 0.65 0.19 0 0 -0.88zm0 -1.39l-10.73 0 0 0.23 10.54 0 0 0.65 0.19 0 0 -0.88zm0 -1.39l-10.73 0 0 0.23 10.54 0 0 0.65 0.19 0 0 -0.88zm0 -1.39l-10.73 0 0 0.23 10.54 0 0 0.65 0.19 0 0 -0.88zm0 -1.39l-4.76 0 0 0.23 4.57 0 0 0.65 0.19 0 0 -0.88zm0 -1.39l-4.76 0 0 0.23 4.57 0 0 0.65 0.19 0 0 -0.88zm0 -1.39l-10.73 0 0 0.23 10.54 0 0 0.65 0.19 0 0 -0.88zm0 -1.39l-4.76 0 0 0.23 4.57 0 0 0.65 0.19 0 0 -0.88zm0 -1.39l-4.76 0 0 0.23 4.57 0 0 0.65 0.19 0 0 -0.88zm0 -1.39l-4.76 0 0 0.23 4.57 0 0 0.65 0.19 0 0 -0.88zm0 -1.39l-4.76 0 0 0.23 4.57 0 0 0.65 0.19 0 0 -0.88z"/>
   </g>
  </g>
 </g>
</svg>
