<svg xmlns="http://www.w3.org/2000/svg" width="512" height="512" viewBox="0 0 14 14"><g fill="none" fill-rule="evenodd" clip-rule="evenodd"><path fill="#2859c5" d="M1.609.314a49 49 0 0 1 7.551 0a1.476 1.476 0 0 1 1.362 1.36q.064.843.1 1.67v.01a49 49 0 0 0-6.157.087A1.476 1.476 0 0 0 3.103 4.8a49 49 0 0 0-.1 5.845q-.69-.034-1.394-.087a1.476 1.476 0 0 1-1.362-1.36a48.6 48.6 0 0 1 0-7.524A1.476 1.476 0 0 1 1.61.314Z"/><path fill="#8fbffa" d="M12.016 3.44a49 49 0 0 0-7.551 0a1.476 1.476 0 0 0-1.362 1.362a48.6 48.6 0 0 0 0 7.523a1.476 1.476 0 0 0 1.362 1.36a49 49 0 0 0 7.551 0a1.476 1.476 0 0 0 1.362-1.36a48.6 48.6 0 0 0 0-7.523a1.476 1.476 0 0 0-1.362-1.361Z"/><path fill="#2859c5" d="M7.99 6.455a.625.625 0 0 1 1.25 0v1.483h1.484a.625.625 0 1 1 0 1.25H9.24v1.483a.625.625 0 0 1-1.25 0V9.188H6.507a.625.625 0 0 1 0-1.25H7.99z"/></g></svg>