<svg xmlns="http://www.w3.org/2000/svg" width="512" height="512" viewBox="0 0 48 48"><g fill="none"><path fill="#32bea6" d="M24 47.998c13.255 0 24-10.745 24-24C48 10.746 37.255 0 24 0S0 10.745 0 23.999s10.745 23.999 24 23.999"/><path fill="#f4d0a1" d="M36.24 20.394L22.438 34.185l-9.057 2.886a3.36 3.36 0 0 0-2.456-2.456l2.88-9.062L27.6 11.756z"/><path fill="#f8e1c2" d="M27.6 11.755L13.804 25.552l-2.88 9.063a3.36 3.36 0 0 1 1.54.862l19.43-19.43z"/><path fill="#f7b4b4" d="m36.84 19.797l-.618.617l-8.64-8.64l.618-.617a3.49 3.49 0 0 1 4.937 0l3.702 3.703a3.49 3.49 0 0 1 0 4.937"/><path fill="#3e3e3f" d="m13.38 37.071l-3.065.879a.22.22 0 0 1-.214-.056a.22.22 0 0 1-.056-.214l.879-3.065c.59.156 1.127.466 1.558.898c.432.43.742.968.898 1.558"/><path fill="#facb1b" d="m27.583 11.774l-1.833 1.833l8.64 8.64l1.832-1.833z"/><path fill="#059bbf" d="m34.371 22.265l-11.852 11.85a.256.256 0 0 1-.364 0a.34.34 0 0 1-.07-.366a1.738 1.738 0 0 0-2.26-2.296a.38.38 0 0 1-.416-.083l-.007-.006a.38.38 0 0 1-.083-.417a1.738 1.738 0 0 0-2.271-2.271a.38.38 0 0 1-.417-.084a.38.38 0 0 1-.09-.422a1.74 1.74 0 0 0-1.28-2.372a1.74 1.74 0 0 0-1.015.113a.34.34 0 0 1-.367-.071a.255.255 0 0 1 0-.364l11.852-11.851z"/><path fill="#21b2d1" d="M31.594 19.487L19.606 31.475a.37.37 0 0 1-.198-.106a.38.38 0 0 1-.09-.422a1.74 1.74 0 0 0-2.27-2.271a.38.38 0 0 1-.423-.09a.4.4 0 0 1-.105-.197l11.988-11.987z"/><path fill="#fbc8c8" d="M33.137 11.157a3.49 3.49 0 0 0-4.937 0l-.617.617l4.292 4.293l3.086-3.086z"/></g></svg>