<?xml version="1.0" encoding="UTF-8"?>
<!DOCTYPE svg PUBLIC "-//W3C//DTD SVG 1.1//EN" "http://www.w3.org/Graphics/SVG/1.1/DTD/svg11.dtd">
<!-- Creator: CorelDRAW -->
<svg xmlns="http://www.w3.org/2000/svg" xml:space="preserve" width="0.131835in" height="0.131835in" version="1.1" shape-rendering="geometricPrecision" text-rendering="geometricPrecision" image-rendering="optimizeQuality" fill-rule="evenodd" clip-rule="evenodd"
viewBox="0 0 48.46 48.46"
 xmlns:xlink="http://www.w3.org/1999/xlink"
 xmlns:xodm="http://www.corel.com/coreldraw/odm/2003">
 <defs>
     <radialGradient id="id0" gradientUnits="userSpaceOnUse" gradientTransform="matrix(-1.60067E+000 1.62548 -1.62548E+000 -1.60075E+000 116 -39)" cx="38.76" cy="9.21" r="17.28" fx="38.76" fy="9.21">
      <stop offset="0" stop-opacity="1" stop-color="#7DC4E3"/>
      <stop offset="1" stop-opacity="1" stop-color="#2999CE"/>
     </radialGradient>
 </defs>
 <g id="Layer_x0020_1">
  <metadata id="CorelCorpID_0Corel-Layer"/>
  <g id="_105553977870688">
   <g>
    <circle fill="url(#id0)" cx="24.23" cy="24.23" r="24.23"/>
    <path fill="#332D2B" fill-opacity="0.501961" d="M24.23 48.46c3.39,0 6.62,-0.7 9.55,-1.96 -2.62,0.97 -5.46,1.5 -8.42,1.5 -13.38,0 -24.23,-10.85 -24.23,-24.23 0,-9.99 6.04,-18.56 14.67,-22.27 -9.23,3.42 -15.81,12.3 -15.81,22.72 0,13.38 10.85,24.23 24.23,24.23z"/>
   </g>
   <g>
    <path fill="#332D2B" fill-opacity="0.501961" d="M13.36 26.93l-0.7 0.7c-0.7,0.7 -1.85,0.7 -2.55,0l-1.12 -1.12c-0.7,-0.7 -0.7,-1.85 0,-2.55l13.78 -13.78c0.33,-0.33 0.77,-0.52 1.24,-0.53l0.07 0c0.47,0.01 0.91,0.2 1.24,0.53l4.22 4.22 0 -0.25c0,-0.99 0.81,-1.8 1.8,-1.8l1.59 0c0.99,0 1.8,0.81 1.8,1.8l0 5.45 4.37 4.37c0.7,0.7 0.7,1.85 0,2.55l-1.12 1.12c-0.7,0.7 -1.85,0.7 -2.55,0l-0.7 -0.7c0.12,0.12 0.18,0.26 0.18,0.43l0 6.59c0,1.66 -1.35,3.01 -3.01,3.01l-5.2 0c-0.33,0 -0.6,-0.27 -0.6,-0.6l0 -4.75c0,-0.49 -0.4,-0.88 -0.88,-0.88l-2.35 0c-0.49,0 -0.88,0.4 -0.88,0.88l0 4.75c0,0.33 -0.27,0.6 -0.6,0.6l-5.2 0c-1.66,0 -3.01,-1.35 -3.01,-3.01l0 -6.59c0,-0.16 0.06,-0.31 0.18,-0.43z"/>
    <path fill="white" d="M34.83 27.06l0 6.7c0,1.35 -1.1,2.45 -2.45,2.45l-5.29 0 0 -4.84c0,-0.83 -0.68,-1.51 -1.51,-1.51l-2.39 0c-0.83,0 -1.51,0.68 -1.51,1.51l0 4.84 -5.29 0c-1.35,0 -2.45,-1.1 -2.45,-2.45l0 -6.7 10.45 -10.45 10.45 10.45zm-9.58 -17.06l2.01 2.01 3.33 3.33 0 -1.73c0,-0.67 0.55,-1.22 1.22,-1.22l1.61 0c0.67,0 1.22,0.55 1.22,1.22l0 5.8 4.62 4.62c0.48,0.48 0.48,1.25 0,1.73l-1.14 1.14c-0.48,0.48 -1.25,0.48 -1.73,0l-12.02 -12.02 -12.02 12.02c-0.48,0.48 -1.25,0.48 -1.73,0l-1.14 -1.14c-0.48,-0.48 -0.48,-1.25 0,-1.73l12.02 -12.02 2.01 -2.01c0.23,-0.23 0.53,-0.35 0.84,-0.36l0.06 0c0.3,0.01 0.61,0.13 0.84,0.36z"/>
    <path fill="#332D2B" fill-opacity="0.200000" d="M34.83 33.45l0 0.31c0,1.35 -1.1,2.45 -2.45,2.45l-5.29 0 0 -4.84c0,-0.83 -0.68,-1.51 -1.51,-1.51l-2.39 0c-0.82,0 -1.49,0.66 -1.51,1.47l0 -0.33c0,-1.03 0.84,-1.88 1.88,-1.88l2.39 0c1.03,0 1.88,0.84 1.88,1.88l0 4.47 4.92 0c1.13,0 2.05,-0.91 2.08,-2.03zm-13.16 2.03l0 0.74 -5.29 0c-1.35,0 -2.45,-1.1 -2.45,-2.45l0 -6.7 10.45 -10.45 0.26 0.26 -9.97 9.97 0 6.55c0,1.15 0.94,2.08 2.08,2.08l4.92 0zm8.92 -20.35l0 -1.52c0,-0.67 0.55,-1.22 1.22,-1.22l0.35 0c-0.46,0.01 -0.83,0.39 -0.83,0.86l0 1.73c0,0.15 -0.09,0.28 -0.23,0.34 -0.14,0.06 -0.29,0.03 -0.4,-0.08l-0.11 -0.11zm9.03 9.56c0.06,0.38 -0.05,0.78 -0.34,1.07l-1.14 1.14c-0.48,0.48 -1.25,0.48 -1.73,0l-12.02 -12.02 -12.02 12.02c-0.48,0.48 -1.25,0.48 -1.73,0l-1.14 -1.14c-0.48,-0.48 -0.48,-1.25 0,-1.73l12.02 -12.02 2.01 -2.01c0.23,-0.23 0.53,-0.35 0.84,-0.36l0.06 0 0.17 0.02c-0.16,0.03 -0.32,0.11 -0.44,0.23l-14.03 14.03c-0.33,0.33 -0.33,0.88 0,1.21l1.14 1.14c0.33,0.33 0.88,0.33 1.21,0l12.02 -12.02c0.14,-0.14 0.38,-0.14 0.52,0l12.02 12.02c0.33,0.33 0.88,0.33 1.21,0l1.14 -1.14c0.13,-0.12 0.2,-0.28 0.23,-0.44z"/>
   </g>
  </g>
 </g>
</svg>
