<?xml version="1.0" encoding="UTF-8"?>
<!DOCTYPE svg PUBLIC "-//W3C//DTD SVG 1.1//EN" "http://www.w3.org/Graphics/SVG/1.1/DTD/svg11.dtd">
<!-- Creator: CorelDRAW -->
<svg xmlns="http://www.w3.org/2000/svg" xml:space="preserve" width="0.131835in" height="0.131835in" version="1.1" shape-rendering="geometricPrecision" text-rendering="geometricPrecision" image-rendering="optimizeQuality" fill-rule="evenodd" clip-rule="evenodd"
viewBox="0 0 44.5 44.5"
 xmlns:xlink="http://www.w3.org/1999/xlink"
 xmlns:xodm="http://www.corel.com/coreldraw/odm/2003">
 <defs>
    <radialGradient id="id0" gradientUnits="userSpaceOnUse" gradientTransform="matrix(-1.60067E+000 1.62548 -1.62548E+000 -1.60075E+000 106 -36)" cx="35.6" cy="8.45" r="15.87" fx="35.6" fy="8.45">
     <stop offset="0" stop-opacity="1" stop-color="#7DC4E3"/>
     <stop offset="1" stop-opacity="1" stop-color="#2999CE"/>
    </radialGradient>
 </defs>
 <g id="Layer_x0020_1">
  <metadata id="CorelCorpID_0Corel-Layer"/>
  <g id="_105554114004736">
   <circle fill="url(#id0)" cx="22.25" cy="22.25" r="22.25"/>
   <path fill="#332D2B" fill-opacity="0.501961" d="M22.25 44.5c3.12,0 6.08,-0.64 8.77,-1.8 -2.41,0.89 -5.01,1.38 -7.73,1.38 -12.29,0 -22.25,-9.96 -22.25,-22.25 0,-9.17 5.55,-17.05 13.48,-20.45 -8.48,3.14 -14.52,11.3 -14.52,20.87 0,12.29 9.96,22.25 22.25,22.25z"/>
   <g>
    <path fill="#332D2B" fill-opacity="0.501961" d="M11.77 11.4c-0.04,-0 -0.07,-0.01 -0.11,-0.02 -0.13,-0.05 -0.21,-0.17 -0.21,-0.31l0 -2.11c0,-0.92 0.75,-1.67 1.67,-1.67l21.15 0c0.92,0 1.67,0.75 1.67,1.67l0 14.25c0,0.92 -0.75,1.67 -1.67,1.67l-8.52 0c-0.14,0 -0.25,-0.08 -0.31,-0.2 -0.01,-0.03 -0.02,-0.05 -0.02,-0.08 -0.46,0.47 -0.92,0.95 -1.38,1.42 1.45,0.11 2.25,1.23 2.22,2.68 0.31,0.42 0.14,1.38 -0.26,1.7 -0.12,0.33 -0.35,0.72 -0.56,1l0.04 0.14c0.07,0.04 0.13,0.09 0.19,0.15 0,0 0.01,0.01 0.01,0.01 0.28,0.01 0.56,0.04 0.83,0.09 1,0.2 1.42,0.82 1.58,1.68 0.16,-0.86 0.58,-1.48 1.58,-1.68 0.27,-0.05 0.55,-0.08 0.83,-0.09 0,-0 0.01,-0.01 0.01,-0.01 0.09,-0.09 0.2,-0.16 0.3,-0.19 -0.25,-0.31 -0.51,-0.73 -0.64,-1.1 -0.4,-0.32 -0.57,-1.28 -0.26,-1.7 -0.03,-1.55 0.88,-2.72 2.52,-2.69 1.64,-0.03 2.56,1.14 2.52,2.69 0.31,0.42 0.14,1.38 -0.26,1.7 -0.11,0.31 -0.31,0.66 -0.51,0.93l0.08 0.28c0.03,0.02 0.07,0.05 0.1,0.08 0,0 0.01,0.01 0.01,0.01 0.28,0.01 0.56,0.04 0.83,0.09 1.18,0.23 1.55,1.05 1.64,2.16l-0.05 0.03c0.06,0.06 0.09,0.14 0.09,0.23l0 1.35c0,0.92 -0.75,1.68 -1.68,1.68l-22.96 0c-0.92,0 -1.68,-0.75 -1.68,-1.68l0 -1.35c0,-0.09 0.04,-0.17 0.09,-0.23l-0.05 -0.03c0.09,-1.11 0.46,-1.93 1.64,-2.16 0.27,-0.05 0.55,-0.08 0.83,-0.09 0,-0 0.01,-0.01 0.01,-0.01 0.07,-0.07 0.14,-0.12 0.22,-0.16l0.03 -0.09c-0.23,-0.3 -0.47,-0.69 -0.59,-1.04 -0.4,-0.32 -0.57,-1.28 -0.26,-1.7 -0,-0.17 0,-0.33 0.02,-0.49l-2.64 0c-1.25,0 -2.28,-1.02 -2.28,-2.27l0.04 -1.25c-0.04,-0.06 -0.05,-0.12 -0.05,-0.19 0.01,-0.45 0.03,-0.9 0.07,-1.35 0.14,-1.73 0.69,-3 2.54,-3.37 0.47,-0.09 0.95,-0.14 1.42,-0.16 0.02,-0.02 0.05,-0.05 0.07,-0.07 0.26,-0.25 0.54,-0.36 0.8,-0.28 -0.01,-0.01 -0.02,-0.02 -0.02,-0.03 -0.51,-0.55 -1.05,-1.36 -1.29,-2.11 -0.62,-0.4 -0.91,-2.04 -0.4,-2.6 -0.04,-1.25 0.3,-2.35 0.99,-3.12zm1.43 -0.94c0.2,-0.07 0.41,-0.12 0.64,-0.16 -0.03,-0.03 -0.06,-0.06 -0.08,-0.1 -0.06,-0.13 -0.04,-0.27 0.05,-0.38 0.19,-0.2 0.45,-0.32 0.72,-0.32l18.26 0c0.54,0 0.99,0.44 0.99,0.98l0 11.49c0,0.54 -0.44,0.98 -0.99,0.98l-5.97 0c-0.09,0 -0.17,-0.03 -0.23,-0.09 -0.01,0.08 -0.02,0.16 -0.04,0.24 0.03,-0.01 0.07,-0.02 0.11,-0.02l7.5 0 0 -14.04 -20.94 0 0 1.28c0,0.04 -0.01,0.08 -0.02,0.12zm3.88 8.65c-0.04,0.04 -0.07,0.08 -0.11,0.12 -0.01,0.01 -0.02,0.02 -0.03,0.03 0.06,-0.02 0.12,-0.03 0.19,-0.03 -0.01,-0.02 -0.03,-0.05 -0.03,-0.08 -0,-0.02 -0.01,-0.03 -0.01,-0.05zm4.99 7.43l-0.84 -1.02 0.03 0.4c0,1.25 -1.02,2.27 -2.28,2.27l-1.45 0c0.02,0.16 0.03,0.32 0.02,0.49 0.31,0.42 0.14,1.38 -0.26,1.7 -0.12,0.36 -0.38,0.77 -0.62,1.07l0.01 0.03c0.1,0.04 0.2,0.11 0.28,0.19 0,0 0.01,0.01 0.01,0.01 0.28,0.01 0.56,0.04 0.83,0.09 1,0.2 1.42,0.82 1.58,1.68 0.16,-0.86 0.58,-1.48 1.58,-1.68 0.27,-0.05 0.55,-0.08 0.83,-0.09 0,-0 0.01,-0.01 0.01,-0.01 0.09,-0.09 0.19,-0.16 0.3,-0.19 -0.25,-0.31 -0.51,-0.73 -0.64,-1.1 -0.4,-0.32 -0.57,-1.28 -0.26,-1.7 -0.02,-0.89 0.28,-1.67 0.85,-2.15zm-5.55 -6.9c-0.52,0.4 -1.18,0.69 -1.8,0.66 -0.61,0.03 -1.25,-0.25 -1.76,-0.64 0.27,0.43 0.54,0.87 0.81,1.3 0.64,0.13 1.3,0.13 1.93,0l0.82 -1.33z"/>
    <g>
     <path fill="#EFEFEF" d="M14.71 19.89c0,0 -1.05,0.07 -2.03,-0.97 -0.98,-1.05 -1.28,-2.15 -1.28,-2.15 -0.5,-0.03 -0.89,-2.03 -0.34,-2.23 -0.15,-2.43 1.16,-4.21 3.65,-4.16 2.49,-0.05 3.8,1.73 3.65,4.16 0.56,0.2 0.16,2.2 -0.34,2.23 0,0 -0.3,1.1 -1.28,2.15 -0.98,1.05 -2.03,0.97 -2.03,0.97zm15.7 -6.19l0 0c0.1,0.06 0.13,0.18 0.08,0.28l-4.47 7.75 0.01 0.01 0 0c0.52,0.52 0.52,1.36 0,1.88 -0.81,0.81 -1.53,1.58 -2.34,2.38 -0.49,0.01 -0.91,0.14 -1.26,0.35l-1.33 -1.33 -0.1 0.09 0 0.81c0,1.07 -0.87,1.97 -1.97,1.97l-1.53 0c-0.26,-1.13 -1.13,-1.91 -2.48,-1.89 -1.35,-0.03 -2.22,0.75 -2.47,1.89l-2.73 0c-1.08,0 -1.97,-0.89 -1.97,-1.97l0 -1.43 -0.02 -0.02c0.01,-0.45 0.03,-0.9 0.07,-1.34 0.14,-1.63 0.61,-2.77 2.3,-3.11 0.44,-0.09 0.95,-0.14 1.52,-0.16 0.06,-0.05 0.11,-0.11 0.17,-0.16 0.26,-0.25 0.51,-0.33 0.73,0.02 0.3,0.49 0.61,0.98 0.91,1.48 0.78,0.18 1.6,0.18 2.38,0l0.91 -1.48c0.22,-0.36 0.47,-0.27 0.73,-0.02 0.06,0.05 0.11,0.11 0.17,0.16 0.57,0.02 1.08,0.07 1.52,0.16 0.84,0.17 1.38,0.53 1.72,1.05l1.92 1.92 1.25 -1.25c0.41,-0.41 1.04,-0.5 1.54,-0.25l4.45 -7.71c0.06,-0.1 0.18,-0.13 0.28,-0.08zm1.05 17.85l-0.03 -0.04c-0.59,-0.64 -0.78,-1.3 -0.78,-1.3 -0.3,-0.02 -0.54,-1.23 -0.2,-1.35 -0.09,-1.48 0.7,-2.55 2.21,-2.52 1.51,-0.03 2.31,1.05 2.21,2.52 0.34,0.12 0.1,1.33 -0.2,1.35 0,0 -0.15,0.54 -0.6,1.1l0.17 0.57c0.05,0.02 0.1,0.06 0.15,0.11 0.03,0.03 0.07,0.07 0.1,0.1 0.34,0.01 0.66,0.04 0.92,0.09 1.02,0.2 1.31,0.89 1.39,1.88l0.02 0.24 0.02 0 0 0.55 0 0.03 0 0.79c0,0.75 -0.61,1.36 -1.36,1.36l-23.25 0c-0.75,0 -1.36,-0.61 -1.36,-1.36l0 -0.79 0 -0.03 0 -0.55 0.02 0 0.02 -0.24c0.08,-0.99 0.37,-1.68 1.39,-1.88 0.27,-0.05 0.58,-0.08 0.92,-0.09 0.03,-0.03 0.07,-0.07 0.1,-0.1 0.09,-0.08 0.17,-0.13 0.25,-0.13l0.16 -0.43c-0.53,-0.61 -0.7,-1.22 -0.7,-1.22 -0.3,-0.02 -0.54,-1.23 -0.2,-1.35 -0.09,-1.48 0.7,-2.55 2.21,-2.52 1.51,-0.03 2.31,1.05 2.21,2.52 0.34,0.12 0.1,1.33 -0.2,1.35 0,0 -0.17,0.62 -0.72,1.24l0.13 0.43c0.1,-0.04 0.2,0.01 0.31,0.12 0.03,0.03 0.07,0.07 0.1,0.1 0.34,0.01 0.66,0.04 0.92,0.09 1.02,0.2 1.31,0.89 1.39,1.88l0.02 0.24 0.51 0 0.02 -0.24c0.08,-0.99 0.37,-1.68 1.39,-1.88 0.27,-0.05 0.58,-0.08 0.92,-0.09 0.03,-0.03 0.07,-0.07 0.1,-0.1 0.11,-0.11 0.22,-0.16 0.32,-0.11l0.15 -0.39c-0.58,-0.63 -0.76,-1.28 -0.76,-1.28 -0.3,-0.02 -0.54,-1.23 -0.2,-1.35 -0.09,-1.48 0.7,-2.55 2.21,-2.52 1.51,-0.03 2.31,1.05 2.21,2.52 0.34,0.12 0.1,1.33 -0.2,1.35 0,0 -0.16,0.58 -0.66,1.17l0.14 0.48c0.08,0 0.15,0.05 0.24,0.13 0.03,0.03 0.07,0.07 0.1,0.1 0.34,0.01 0.66,0.04 0.92,0.09 1.02,0.2 1.31,0.89 1.39,1.88l0.02 0.24 0.51 0 0.02 -0.24c0.08,-0.99 0.37,-1.68 1.39,-1.88 0.27,-0.05 0.58,-0.08 0.92,-0.09 0.03,-0.03 0.07,-0.07 0.1,-0.1 0.13,-0.13 0.26,-0.18 0.38,-0.07l0.14 -0.37z"/>
     <path fill="white" d="M17.01 14.05c0,0 -0.46,-0.37 -0.97,-0.4 -0.51,-0.03 -1.31,0.19 -1.69,0.14 -0.37,-0.05 -0.81,-0.15 -1.11,-0.25 -0.3,-0.1 -0.69,0.06 -0.9,0.32 -0.21,0.26 -0.29,0.35 -0.41,0.64 -0.12,0.29 -0.15,0.52 -0.15,0.52 0,0 -0.21,-0.13 -0.31,0.13 -0.1,0.26 -0.05,0.84 0.15,1.16 0.2,0.32 0.35,0.19 0.35,0.19 0.41,1.15 1.33,2.71 2.72,2.72 1.45,0.01 2.33,-1.53 2.77,-2.71 0,0 0.2,0.14 0.36,-0.23 0.16,-0.36 0.23,-0.82 0.16,-1.07 -0.08,-0.26 -0.24,-0.22 -0.28,-0.18 -0.03,0.03 -0.05,0.04 -0.05,0.04 -0.04,-0.43 -0.33,-1.13 -0.77,-1.37 0.06,0.1 0.12,0.2 0.14,0.35zm-2.49 -4.43l18.49 0c0.36,0 0.66,0.3 0.66,0.66l0 11.64c0,0.36 -0.3,0.66 -0.66,0.66l-6.05 0c-0.02,-0.31 -0.11,-0.63 -0.28,-0.9l4.29 -7.42c0.21,-0.37 0.09,-0.84 -0.28,-1.05 -0.37,-0.21 -0.84,-0.09 -1.05,0.28l-4.23 7.32c-0.6,-0.11 -1.23,0.08 -1.67,0.52l-0.86 0.86 -1.48 -1.48c-0.45,-0.7 -1.19,-1.08 -2.05,-1.25 -0.45,-0.09 -0.92,-0.13 -1.39,-0.16 -0.01,-0 -0.01,-0.01 -0.01,-0.01 -0.16,-0.15 -0.33,-0.27 -0.51,-0.32 0.43,-0.53 0.83,-1.19 1.06,-1.82 0.67,-0.54 0.95,-2.14 0.44,-2.85 0.06,-2.58 -1.48,-4.54 -4.22,-4.49 -0.23,-0 -0.46,0.01 -0.67,0.03 0.12,-0.13 0.29,-0.21 0.49,-0.21zm-1.44 -1.12c-0.12,0 -0.23,0.11 -0.23,0.23l0 1.4c-0.43,0.19 -0.81,0.4 -1.12,0.74l0 -2.14c0,-0.75 0.61,-1.36 1.36,-1.36l21.42 0c0.75,0 1.36,0.61 1.36,1.36l0 14.43c0,0.74 -0.61,1.36 -1.36,1.36l-8.62 0c0.32,-0.32 0.73,-0.73 0.92,-1.12l7.7 0c0.12,0 0.23,-0.11 0.23,-0.23l0 -14.43c0,-0.12 -0.11,-0.23 -0.23,-0.23l-21.42 0zm1.63 15.25l-2.46 -3.93 -2.13 2.07 2.35 0 2.24 2.01 2.24 -2.01 2.35 0 -2.13 -2.07 -2.46 3.93z"/>
    </g>
    <path fill="#332D2B" fill-opacity="0.301961" d="M14.55 19.88c-0.33,-0.02 -1.12,-0.17 -1.86,-0.97 -0.98,-1.05 -1.28,-2.15 -1.28,-2.15 -0.5,-0.03 -0.89,-2.03 -0.34,-2.23 -0.15,-2.43 1.16,-4.21 3.65,-4.16 0.32,-0.01 0.62,0.02 0.89,0.07 -0.2,-0.02 -0.4,-0.03 -0.61,-0.03 -2.49,-0.05 -3.8,1.73 -3.65,4.16 -0.56,0.2 -0.16,2.2 0.34,2.23 0,0 0.3,1.1 1.28,2.15 0.58,0.62 1.18,0.85 1.58,0.93zm8.03 6.37l-0.16 0.09 -1.15 -1.15 0 -0.05 0.1 -0.09 1.21 1.21zm-4.8 1.62l-0.28 0c-0.22,-0.94 -0.85,-1.64 -1.84,-1.83 1.13,0.1 1.86,0.83 2.11,1.83zm-8.09 -0c-1.02,-0.07 -1.83,-0.93 -1.83,-1.96l0 -1.43 -0.02 -0.02c0.01,-0.45 0.03,-0.9 0.07,-1.34 0.14,-1.63 0.61,-2.77 2.3,-3.11 0.44,-0.09 0.95,-0.14 1.52,-0.16 0.06,-0.05 0.11,-0.11 0.17,-0.16 0.2,-0.19 0.39,-0.29 0.57,-0.16 -0.09,0.03 -0.19,0.1 -0.29,0.2 -0.06,0.05 -0.11,0.11 -0.17,0.16 -0.57,0.02 -1.08,0.07 -1.52,0.16 -1.69,0.33 -2.16,1.47 -2.3,3.11 -0.04,0.45 -0.06,0.9 -0.07,1.34l0.02 0.02 0 1.43c0,0.94 0.66,1.72 1.55,1.92zm4.42 -6.58c0.6,0.07 1.21,0.04 1.8,-0.1l0.91 -1.48c0.16,-0.26 0.34,-0.28 0.52,-0.18 -0.08,0.03 -0.16,0.1 -0.24,0.22l-0.91 1.48c-0.68,0.16 -1.4,0.18 -2.09,0.06zm3.87 -1.42c0.38,0.02 0.73,0.05 1.04,0.1 -0.31,-0.04 -0.65,-0.06 -1.01,-0.08l-0.03 -0.03zm5.02 3l1.13 -1.13c0.34,-0.34 0.83,-0.46 1.27,-0.35 -0.36,-0.01 -0.72,0.12 -0.99,0.39l-1.25 1.25 -0.16 -0.16zm8.46 8.68l-0.03 -0.04c-0.59,-0.64 -0.78,-1.3 -0.78,-1.3 -0.3,-0.02 -0.54,-1.23 -0.2,-1.35 -0.09,-1.48 0.7,-2.55 2.21,-2.52 0.21,-0 0.41,0.01 0.6,0.05 -0.1,-0.01 -0.2,-0.01 -0.31,-0.01 -1.51,-0.03 -2.3,1.05 -2.21,2.52 -0.34,0.12 -0.1,1.33 0.2,1.35 0,0 0.18,0.67 0.78,1.3l0.03 0.04 -0.14 0.37c-0.12,-0.11 -0.24,-0.06 -0.38,0.07 -0.03,0.03 -0.07,0.07 -0.1,0.1 -0.34,0.01 -0.66,0.04 -0.92,0.09 -1.02,0.2 -1.31,0.89 -1.39,1.88l-0.02 0.24 -0.51 0 -0 -0.04 0.23 0 0.02 -0.24c0.08,-0.99 0.37,-1.68 1.39,-1.88 0.27,-0.05 0.58,-0.08 0.92,-0.09 0.03,-0.03 0.07,-0.07 0.1,-0.1 0.13,-0.13 0.26,-0.18 0.38,-0.07l0.14 -0.37zm3.28 0.55c0.22,0.01 0.42,0.04 0.6,0.07 -0.18,-0.02 -0.37,-0.03 -0.57,-0.04l-0.03 -0.03zm-22.57 4.93c-0.73,-0.03 -1.31,-0.63 -1.31,-1.36l0 -0.79 0 -0.03 0 -0.55 0.02 0 0.02 -0.24c0.08,-0.99 0.37,-1.68 1.39,-1.88 0.27,-0.05 0.58,-0.08 0.92,-0.09 0.03,-0.03 0.07,-0.07 0.1,-0.1 0.09,-0.08 0.17,-0.13 0.25,-0.13l0.16 -0.43c-0.53,-0.61 -0.7,-1.22 -0.7,-1.22 -0.3,-0.02 -0.54,-1.23 -0.2,-1.35 -0.09,-1.48 0.7,-2.55 2.21,-2.52 0.21,-0 0.41,0.01 0.6,0.05 -0.1,-0.01 -0.2,-0.01 -0.31,-0.01 -1.51,-0.03 -2.3,1.05 -2.21,2.52 -0.34,0.12 -0.1,1.33 0.2,1.35 0,0 0.17,0.61 0.7,1.22l-0.16 0.43c-0.08,-0 -0.16,0.05 -0.25,0.13 -0.03,0.03 -0.07,0.07 -0.1,0.1 -0.34,0.01 -0.66,0.04 -0.92,0.09 -1.02,0.2 -1.31,0.89 -1.39,1.88l-0.02 0.24 -0.02 0 0 0.55 0 0.03 0 0.79c0,0.63 0.44,1.17 1.03,1.32zm4.94 -4.93c0.22,0.01 0.42,0.04 0.6,0.07 -0.18,-0.02 -0.37,-0.03 -0.57,-0.04l-0.03 -0.03zm2.36 2.2l0.23 0 0.02 -0.24c0.08,-0.99 0.37,-1.68 1.39,-1.88 0.27,-0.05 0.58,-0.08 0.92,-0.09 0.03,-0.03 0.07,-0.07 0.1,-0.1 0.11,-0.11 0.22,-0.16 0.32,-0.11l0.15 -0.39c-0.58,-0.63 -0.76,-1.28 -0.76,-1.28 -0.3,-0.02 -0.54,-1.23 -0.2,-1.35 -0.09,-1.48 0.7,-2.55 2.21,-2.52 0.21,-0 0.41,0.01 0.6,0.05 -0.1,-0.01 -0.2,-0.01 -0.31,-0.01 -1.51,-0.03 -2.3,1.05 -2.21,2.52 -0.34,0.12 -0.1,1.33 0.2,1.35 0,0 0.18,0.65 0.76,1.28l-0.15 0.39c-0.1,-0.05 -0.2,0.01 -0.32,0.11 -0.03,0.03 -0.07,0.07 -0.1,0.1 -0.34,0.01 -0.66,0.04 -0.92,0.09 -1.02,0.2 -1.31,0.89 -1.39,1.88l-0.02 0.24 -0.51 0 -0 -0.04zm6.46 -2.2c0.22,0.01 0.42,0.04 0.6,0.07 -0.18,-0.02 -0.37,-0.03 -0.57,-0.04l-0.03 -0.03z"/>
    <path fill="#332D2B" fill-opacity="0.301961" d="M17.01 14.05c0,0 -0.46,-0.37 -0.97,-0.4 -0.51,-0.03 -1.31,0.19 -1.69,0.14 -0.37,-0.05 -0.81,-0.15 -1.11,-0.25 -0.3,-0.1 -0.69,0.06 -0.9,0.32l-0.09 0.11c0.22,-0.17 0.51,-0.25 0.75,-0.17 0.3,0.1 0.74,0.2 1.11,0.25 0.37,0.05 1.18,-0.17 1.69,-0.14 0.51,0.03 0.97,0.4 0.97,0.4 -0.02,-0.15 -0.08,-0.26 -0.14,-0.35 0.44,0.24 0.73,0.94 0.77,1.37 0,0 0.02,-0.01 0.05,-0.04 0.03,-0.03 0.2,-0.07 0.28,0.18 0.08,0.25 0,0.7 -0.15,1.06 0.07,-0.01 0.16,-0.07 0.24,-0.25 0.16,-0.36 0.23,-0.82 0.16,-1.07 -0.08,-0.26 -0.24,-0.22 -0.28,-0.18 -0.03,0.03 -0.05,0.04 -0.05,0.04 -0.04,-0.43 -0.33,-1.13 -0.77,-1.37 0.06,0.1 0.12,0.2 0.14,0.35zm-5.41 0.95c-0.05,0.01 -0.1,0.06 -0.14,0.15l-0.03 0.1c0.05,0.01 0.09,0.03 0.09,0.03 0,0 0.02,-0.11 0.07,-0.29zm4.62 3.56c0.5,-0.48 0.87,-1.15 1.13,-1.77 -0.08,0.02 -0.13,-0.02 -0.13,-0.02 -0.22,0.59 -0.55,1.26 -1,1.79zm-1.69 -8.93l18.49 0c0.36,0 0.66,0.3 0.66,0.66l0 11.64c0,0.24 -0.13,0.45 -0.32,0.56 0.05,-0.09 0.07,-0.2 0.07,-0.31l0 -11.64c0,-0.36 -0.3,-0.66 -0.66,-0.66l-17.07 0c-0.31,-0.06 -0.64,-0.08 -0.99,-0.08 -0.23,-0 -0.46,0.01 -0.67,0.03 0.12,-0.13 0.29,-0.21 0.49,-0.21zm15.11 3.87l-4.23 7.32 -0.09 -0.01 4.07 -7.05c0.06,-0.11 0.14,-0.19 0.24,-0.26zm-16.78 -4.73l0 1.37 -0.24 0.11 0 -1.25c0,-0.12 0.11,-0.23 0.23,-0.23l0.01 0zm-0.87 -0.82c0.25,-0.34 0.65,-0.57 1.1,-0.57l21.42 0c0.75,0 1.36,0.61 1.36,1.36l0 14.43c0,0.42 -0.19,0.8 -0.5,1.05 0.16,-0.22 0.25,-0.49 0.25,-0.79l0 -14.43c0,-0.75 -0.61,-1.36 -1.36,-1.36l-21.42 0c-0.32,0 -0.62,0.12 -0.86,0.31zm13.91 16.57l-0.01 0 0.22 -0.22 -0.2 0.22zm0.75 -0.87c0.06,-0.09 0.11,-0.17 0.15,-0.26l7.69 0 0 0.03c0,0.12 -0.11,0.23 -0.23,0.23l-7.61 0zm-11.97 0.03l-2.42 -3.87 -2.13 2.07 0.02 0 1.86 -1.81 1.99 3.18 0.6 0.54 0.07 -0.11zm4.12 -1.8l0.51 0 -2.13 -2.07 -0.19 0.31 1.81 1.76z"/>
   </g>
  </g>
 </g>
</svg>
