<?xml version="1.0" encoding="UTF-8"?>
<!DOCTYPE svg PUBLIC "-//W3C//DTD SVG 1.1//EN" "http://www.w3.org/Graphics/SVG/1.1/DTD/svg11.dtd">
<!-- Creator: CorelDRAW -->
<svg xmlns="http://www.w3.org/2000/svg" xml:space="preserve" width="0.131835in" height="0.131835in" version="1.1" shape-rendering="geometricPrecision" text-rendering="geometricPrecision" image-rendering="optimizeQuality" fill-rule="evenodd" clip-rule="evenodd"
viewBox="0 0 131.83 131.83"
 xmlns:xlink="http://www.w3.org/1999/xlink"
 xmlns:xodm="http://www.corel.com/coreldraw/odm/2003">
 <defs>
     <radialGradient id="id0" gradientUnits="userSpaceOnUse" gradientTransform="matrix(-1.60067E+000 1.62548 -1.62548E+000 -1.60075E+000 315 -106)" cx="105.46" cy="25.05" r="47.01" fx="105.46" fy="25.05">
      <stop offset="0" stop-opacity="1" stop-color="#7DC4E3"/>
      <stop offset="1" stop-opacity="1" stop-color="#2999CE"/>
     </radialGradient>
 </defs>
 <g id="Layer_x0020_1">
  <metadata id="CorelCorpID_0Corel-Layer"/>
  <g id="_105553912394464">
   <g>
    <circle fill="url(#id0)" cx="65.92" cy="65.92" r="65.92"/>
    <path fill="#332D2B" fill-opacity="0.501961" d="M65.92 131.83c9.23,0 18.02,-1.9 25.99,-5.33 -7.13,2.65 -14.85,4.09 -22.91,4.09 -36.41,0 -65.92,-29.51 -65.92,-65.92 0,-27.17 16.44,-50.5 39.93,-60.59 -25.11,9.31 -43.01,33.48 -43.01,61.83 0,36.41 29.51,65.92 65.92,65.92z"/>
   </g>
   <g>
    <path fill="#332D2B" fill-opacity="0.501961" d="M49.32 32.72l39.39 0c3.41,0 6.2,2.8 6.2,6.2l0 60.44c0,3.41 -2.79,6.2 -6.2,6.2l-39.39 0c-3.41,0 -6.2,-2.8 -6.2,-6.2l0 -18.29 4.54 0 0 18.29c0,0.91 0.76,1.67 1.67,1.67l39.39 0c0.91,0 1.67,-0.76 1.67,-1.67l0 -60.44c0,-0.91 -0.76,-1.67 -1.67,-1.67l-39.39 0c-0.91,0 -1.67,0.76 -1.67,1.67l0 18.08 -4.54 0 0 -18.08c0,-3.41 2.79,-6.2 6.2,-6.2z"/>
    <path fill="#332D2B" fill-opacity="0.501961" d="M59.87 47.81l19.94 18.3c1.77,1.63 1.77,4.46 0,6.08l-19.94 18.3c-1.99,1.82 -6.41,2.03 -6.41,-1.63l0 -3.14 0 -9.18 -27.97 0c-1.82,0 -3.31,-1.48 -3.31,-3.31l0 -8.39c0,-1.82 1.48,-3.31 3.31,-3.31l27.97 0 0 -8.96 0 -3.14c0,-3.66 4.42,-3.46 6.41,-1.63z"/>
   </g>
   <g>
    <path fill="#E4E5E2" d="M50.9 30.77l39.39 0c3.41,0 6.2,2.8 6.2,6.2l0 60.44c0,3.41 -2.79,6.2 -6.2,6.2l-39.39 0c-3.41,0 -6.2,-2.8 -6.2,-6.2l0 -18.29 4.54 0 0 18.29c0,0.91 0.76,1.67 1.67,1.67l39.39 0c0.91,0 1.67,-0.76 1.67,-1.67l0 -60.44c0,-0.91 -0.76,-1.67 -1.67,-1.67l-39.39 0c-0.91,0 -1.67,0.76 -1.67,1.67l0 18.08 -4.54 0 0 -18.08c0,-3.41 2.79,-6.2 6.2,-6.2z"/>
    <path fill="#E4E5E2" d="M61.45 45.85l19.94 18.3c1.77,1.63 1.77,4.46 0,6.08l-19.94 18.3c-1.99,1.82 -6.41,2.03 -6.41,-1.63l0 -3.14 0 -9.18 -27.97 0c-1.82,0 -3.31,-1.48 -3.31,-3.31l0 -8.39c0,-1.82 1.48,-3.31 3.31,-3.31l27.97 0 0 -8.96 0 -3.14c0,-3.66 4.42,-3.46 6.41,-1.63z"/>
   </g>
   <g>
    <path fill="#332D2B" fill-opacity="0.200000" d="M95.53 100.71c-1.1,1.74 -3.05,2.9 -5.24,2.9l-39.39 0c-3.41,0 -6.2,-2.8 -6.2,-6.2l0 -18.29 1.49 0 0 16.67c0,3.41 2.8,6.2 6.2,6.2l39.39 0c1.41,0 2.71,-0.48 3.75,-1.28zm-3.57 -3.27l0 -0.04 0 -60.44c0,-0.9 -0.76,-1.66 -1.67,-1.66l-39.39 0 -0.18 0.01c0.02,-0.89 0.78,-1.63 1.67,-1.63l39.39 0c0.91,0 1.67,0.76 1.67,1.66l0 60.44c0,0.84 -0.66,1.57 -1.49,1.66zm-42.73 -44.02l0 1.62 -4.54 0 0 -18.08c0,-2 0.96,-3.79 2.45,-4.92 -0.61,0.96 -0.96,2.09 -0.96,3.3l0 18.08 3.05 0z"/>
    <path fill="#332D2B" fill-opacity="0.200000" d="M82.17 69.25c-0.2,0.35 -0.46,0.69 -0.78,0.98l-19.94 18.3c-1.99,1.82 -6.42,2.03 -6.42,-1.63l0 -3.14 0 -9.18 -27.97 0c-1.82,0 -3.31,-1.49 -3.31,-3.31l0 -8.38c0,-1.26 0.71,-2.36 1.75,-2.92 -0.17,0.4 -0.26,0.83 -0.26,1.3l0 8.38c0,1.82 1.49,3.31 3.31,3.31l27.97 0 0 9.18 0 3.14c0,3.66 4.43,3.45 6.42,1.63l19.23 -17.66zm-27.14 -11.29l0 -7.34 0 -3.15c0,-1.43 0.68,-2.28 1.63,-2.66 -0.09,0.31 -0.14,0.65 -0.14,1.04l0 3.15 0 8.96 -1.49 0z"/>
   </g>
  </g>
 </g>
</svg>
