<?xml version="1.0" encoding="UTF-8"?>
<!DOCTYPE svg PUBLIC "-//W3C//DTD SVG 1.1//EN" "http://www.w3.org/Graphics/SVG/1.1/DTD/svg11.dtd">
<!-- Creator: CorelDRAW -->
<svg xmlns="http://www.w3.org/2000/svg" xml:space="preserve" width="0.131835in" height="0.131835in" version="1.1" shape-rendering="geometricPrecision" text-rendering="geometricPrecision" image-rendering="optimizeQuality" fill-rule="evenodd" clip-rule="evenodd"
viewBox="0 0 131.83 131.83"
 xmlns:xlink="http://www.w3.org/1999/xlink"
 xmlns:xodm="http://www.corel.com/coreldraw/odm/2003">
 <defs>
    <radialGradient id="id0" gradientUnits="userSpaceOnUse" gradientTransform="matrix(-1.60067E+000 1.62548 -1.62548E+000 -1.60075E+000 315 -106)" cx="105.46" cy="25.05" r="47.01" fx="105.46" fy="25.05">
     <stop offset="0" stop-opacity="1" stop-color="#7DC4E3"/>
     <stop offset="1" stop-opacity="1" stop-color="#2999CE"/>
    </radialGradient>
 </defs>
 <g id="Layer_x0020_1">
  <metadata id="CorelCorpID_0Corel-Layer"/>
  <g id="_105553973962080">
   <circle fill="url(#id0)" cx="65.92" cy="65.92" r="65.92"/>
   <path fill="#332D2B" fill-opacity="0.501961" d="M65.92 131.83c9.23,0 18.02,-1.9 25.99,-5.33 -7.13,2.65 -14.85,4.09 -22.91,4.09 -36.41,0 -65.92,-29.51 -65.92,-65.92 0,-27.17 16.44,-50.5 39.93,-60.59 -25.11,9.31 -43.01,33.48 -43.01,61.83 0,36.41 29.51,65.92 65.92,65.92z"/>
   <path fill="#332D2B" fill-opacity="0.501961" d="M85.7 44.62c2.88,2.38 1.09,11.93 -2.06,13.44 -1.31,4.08 -4.21,8.52 -7.04,11.55 -2.74,2.93 -7.61,5.93 -11.74,5.61 -4.13,0.32 -9,-2.68 -11.74,-5.61 -2.83,-3.03 -5.72,-7.47 -7.03,-11.55 -3.15,-1.51 -4.94,-11.06 -2.06,-13.44 -0.59,-13.25 6.82,-23.33 20.83,-23.07 14.01,-0.26 21.43,9.81 20.83,23.07zm-37.5 28.47c0.21,-0.2 0.43,-0.41 0.64,-0.61 1.9,-1.82 3.94,-2.19 5.5,0.3 1.58,2.55 3.16,5.1 4.74,7.66 3.83,0.83 7.85,0.83 11.68,0 1.58,-2.56 3.16,-5.11 4.74,-7.66 1.55,-2.5 3.6,-2.13 5.5,-0.3 0.21,0.2 0.43,0.41 0.64,0.61 2.67,0.11 5.4,0.33 8.01,0.85 9.76,1.94 12.52,8.64 13.28,17.77 0.2,2.45 0.31,4.91 0.36,7.36 0,0.26 -0.07,0.48 -0.24,0.67 -9.58,11.12 -23.43,17.48 -38.12,17.48 -14.69,0 -28.54,-6.36 -38.12,-17.48 -0.17,-0.19 -0.25,-0.42 -0.24,-0.67 0.05,-2.46 0.15,-4.91 0.36,-7.36 0.76,-9.13 3.52,-15.83 13.28,-17.77 2.61,-0.52 5.35,-0.74 8.01,-0.85z"/>
   <path fill="#EFEFEF" d="M65.87 73.22c0,0 -5.7,0.39 -11.01,-5.29 -5.31,-5.68 -6.96,-11.67 -6.96,-11.67 -2.72,-0.16 -4.86,-11.02 -1.83,-12.09 -0.83,-13.22 6.3,-22.86 19.8,-22.61 13.5,-0.25 20.63,9.39 19.8,22.61 3.02,1.08 0.89,11.94 -1.83,12.09 0,0 -1.65,5.99 -6.96,11.67 -5.31,5.69 -11,5.29 -11,5.29zm0.05 42.01c14.94,0 28.32,-6.65 37.36,-17.13 -0.05,-2.44 -0.15,-4.87 -0.35,-7.3 -0.74,-8.87 -3.31,-15.05 -12.48,-16.87 -2.37,-0.47 -5.16,-0.73 -8.24,-0.85 -0.3,-0.29 -0.61,-0.58 -0.91,-0.87 -1.42,-1.37 -2.74,-1.82 -3.95,0.11 -1.65,2.67 -3.31,5.34 -4.96,8.01 -4.24,0.99 -8.7,0.99 -12.94,0 -1.65,-2.67 -3.31,-5.34 -4.96,-8.01 -1.21,-1.93 -2.53,-1.48 -3.95,-0.11 -0.3,0.29 -0.61,0.58 -0.91,0.87 -3.08,0.12 -5.87,0.38 -8.24,0.85 -9.16,1.82 -11.74,8 -12.48,16.87 -0.2,2.43 -0.31,4.86 -0.35,7.3 9.04,10.49 22.43,17.13 37.36,17.13z"/>
   <path fill="#332D2B" fill-opacity="0.301961" d="M65.87 73.22c0,0 -5.7,0.39 -11.01,-5.29 -5.31,-5.68 -6.96,-11.67 -6.96,-11.67 -2.72,-0.16 -4.86,-11.02 -1.83,-12.09 -0.83,-13.16 6.23,-22.77 19.61,-22.61 -12.65,0.16 -18.93,9.52 -18.16,21.76 0.03,0.46 -0.24,0.87 -0.67,1.02 -1.94,0.7 -0.04,10.16 1.57,10.25 0.43,0.03 0.78,0.3 0.91,0.72 1.26,4.1 3.9,8.28 6.8,11.39 2.37,2.53 6.65,5.26 10.38,5.02 3.72,0.24 8.01,-2.5 10.37,-5.02 1.7,-1.82 3.32,-4.02 4.62,-6.36 1,-1.74 1.83,-3.56 2.38,-5.37l0.02 -0.04c0.17,-0.2 0.42,-0.32 0.7,-0.34 0.31,-0.02 0.65,-0.39 0.95,-0.99 0.76,-1.25 1.44,-3.99 1.58,-6.22 0.19,3.57 -1.41,8.78 -3.29,8.89 0,0 -1.65,5.99 -6.96,11.67 -5.31,5.69 -11,5.29 -11,5.29zm19.86 -31.46c0.01,0.54 -0,1.09 -0.03,1.65 -0.02,-0.1 -0.04,-0.2 -0.03,-0.31l0.06 -1.34zm-19.81 73.46c14.94,0 28.32,-6.65 37.36,-17.13l-0.02 -0.61c-9.28,10.6 -22.58,16.65 -36.7,16.65 -14.13,0 -27.43,-6.06 -36.72,-16.67 0.06,-2.31 0.16,-4.61 0.35,-6.92 0.49,-5.87 1.74,-10.63 5.58,-13.53 1.66,-1.46 3.86,-2.53 6.81,-3.12 2.63,-0.52 5.4,-0.73 8.08,-0.83 0.25,-0.01 0.47,-0.1 0.65,-0.28 0.3,-0.29 0.61,-0.58 0.91,-0.87 0.38,-0.37 0.71,-0.66 1.01,-0.8 -0.86,-0.34 -1.76,0.17 -2.71,1.08 -0.3,0.29 -0.61,0.58 -0.91,0.87 -3.08,0.12 -5.87,0.38 -8.24,0.85 -9.16,1.82 -11.74,8 -12.48,16.87 -0.2,2.43 -0.31,4.86 -0.35,7.3 9.04,10.49 22.43,17.13 37.36,17.13zm13.89 -44.07c-0.87,-0.33 -1.69,-0.08 -2.46,1.16 -1.65,2.67 -3.31,5.34 -4.96,8.01 -1.93,0.45 -3.89,0.69 -5.87,0.74 2.39,0.04 4.78,-0.22 7.11,-0.76 0.27,-0.06 0.48,-0.21 0.62,-0.44 1.65,-2.67 3.3,-5.34 4.96,-8.01 0.21,-0.34 0.41,-0.56 0.6,-0.69z"/>
   <path fill="white" d="M78.37 41.54c0,0 -2.52,-2.03 -5.29,-2.18 -2.77,-0.15 -7.13,1.04 -9.17,0.78 -2.03,-0.26 -4.41,-0.81 -6.06,-1.34 -1.64,-0.54 -3.74,0.34 -4.87,1.74 -1.13,1.4 -1.59,1.89 -2.22,3.48 -0.63,1.59 -0.84,2.83 -0.84,2.83 0,0 -1.15,-0.73 -1.69,0.7 -0.54,1.43 -0.28,4.57 0.8,6.3 1.07,1.72 1.91,1.01 1.91,1.01 2.23,6.22 7.23,14.69 14.79,14.76 7.89,0.06 12.65,-8.3 15.06,-14.74 0,0 1.1,0.76 1.95,-1.22 0.85,-1.98 1.26,-4.44 0.85,-5.82 -0.41,-1.38 -1.33,-1.18 -1.52,-1 -0.19,0.17 -0.3,0.22 -0.3,0.22 -0.23,-2.32 -1.81,-6.11 -4.19,-7.43 0.34,0.54 0.67,1.1 0.77,1.92zm-12.45 52.69l-13.36 -21.36 -11.57 11.23 12.75 0 12.19 10.93 12.19 -10.93 12.75 0 -11.57 -11.23 -13.36 21.36z"/>
   <path fill="#332D2B" fill-opacity="0.400000" d="M78.37 41.54l-0.2 -0.15c1.53,1.73 2.5,4.39 2.68,6.17 0,0 0.11,-0.05 0.3,-0.22 0.19,-0.17 1.1,-0.38 1.52,1 0.42,1.38 0.01,3.84 -0.85,5.82 -0.16,0.37 -0.33,0.65 -0.5,0.85 0.4,0 0.96,-0.25 1.44,-1.37 0.85,-1.98 1.26,-4.44 0.85,-5.82 -0.41,-1.38 -1.33,-1.18 -1.52,-1 -0.19,0.17 -0.3,0.22 -0.3,0.22 -0.23,-2.32 -1.81,-6.11 -4.19,-7.43 0.34,0.54 0.67,1.1 0.77,1.92zm-1.43 -0.94c-0.99,-0.56 -2.39,-1.16 -3.85,-1.24 -2.77,-0.15 -7.13,1.04 -9.17,0.78 -2.03,-0.26 -4.41,-0.81 -6.06,-1.34 -1.2,-0.39 -2.65,-0.02 -3.79,0.75 0.93,-0.4 1.96,-0.53 2.85,-0.24 1.64,0.54 4.02,1.08 6.06,1.34 2.03,0.26 6.39,-0.93 9.17,-0.78 2.77,0.15 5.29,2.18 5.29,2.18 -0.07,-0.59 -0.26,-1.04 -0.49,-1.46zm-27.8 6.07c-0.24,0.03 -0.5,0.17 -0.72,0.5 0.32,0.02 0.57,0.19 0.57,0.19 0,0 0.04,-0.26 0.15,-0.69zm21.46 21.81c4.85,-2.37 8.06,-8.11 9.96,-12.98 -0.4,0.08 -0.7,-0.13 -0.7,-0.13 -1.75,4.68 -4.74,10.36 -9.26,13.1zm-4.98 25.25l-13.05 -20.87 -0.79 0.76 12.4 19.82 1.04 0.93 0.4 -0.65zm0.13 1.12l0.18 0.17 11.61 -10.41 -0.37 0 -11.43 10.24zm23.65 -10.76l1.47 0 -11.57 -11.23 -0.56 0.89 10.66 10.34z"/>
  </g>
 </g>
</svg>
