<?xml version="1.0" encoding="UTF-8"?>
<!DOCTYPE svg PUBLIC "-//W3C//DTD SVG 1.1//EN" "http://www.w3.org/Graphics/SVG/1.1/DTD/svg11.dtd">
<!-- Creator: CorelDRAW -->
<svg xmlns="http://www.w3.org/2000/svg" xml:space="preserve" width="0.185992in" height="0.276031in" version="1.1" shape-rendering="geometricPrecision" text-rendering="geometricPrecision" image-rendering="optimizeQuality" fill-rule="evenodd" clip-rule="evenodd"
viewBox="0 0 185.99 276.03"
 xmlns:xlink="http://www.w3.org/1999/xlink"
 xmlns:xodm="http://www.corel.com/coreldraw/odm/2003">
 <g id="Layer_x0020_1">
  <metadata id="CorelCorpID_0Corel-Layer"/>
  <path fill="#E6232A" fill-rule="nonzero" d="M46.3 273.22c2,-1 4,-2.67 4.67,-4.67 0.67,-1.67 0.67,-3.33 1,-5 10.67,3.67 22.33,5.33 34,6.33 15.67,1.33 31.67,1 47,-2.67 8.33,-2 17.33,-4.67 24.33,-9.67 7.67,-5.67 13,-14.33 17.67,-22.67 8,-14.67 12.33,-32.67 10.67,-49.67 -0.67,-7.67 -3,-15.67 -7,-22.67 -9.33,-16.67 -24.33,-29.33 -42.33,-35.67 8,-8.67 15.33,-17.67 20.67,-28.33 7,-14.33 10.67,-31.67 8,-47.67 -2,-12.33 -7.67,-24.33 -16,-33.67 -6.33,-7 -15.33,-12 -24.67,-14.67 -13,-4 -27.67,-3 -40.67,1 -7,2.33 -13.67,5.33 -20.33,8.67 -3.33,1.67 -7,4 -9.67,7 -0.67,0.67 -1.33,1.67 -2.33,2.67 -1.67,-3.33 -4,-6.67 -7,-8.67 -5.33,-3.33 -12.67,-3.33 -19,-2.33 -6.33,1 -13,2.67 -17.67,7 -4.67,4.33 -6.33,11.33 -7,17.67 -1,9.67 -0.67,20 0,29.67 2.67,38 3.33,76 1.33,114 -1,23.33 -2.67,46.67 -1.33,69.67 0.33,6.33 0.67,12.67 2.67,18.33 1.67,4 6.33,7 10.67,8 6.67,1.67 26.33,0.67 32.33,-2zm9.33 -179c0.67,-5 1.67,-10 4.33,-14.33 4.33,-7.33 12.67,-12.33 20.67,-15.67 8.33,-3.33 17.33,-3 25,0.67 2.67,1.33 5,4.33 5.33,7.33 0.67,3.33 0,7 -1.33,10.33 -2,7 -7,13.33 -12.67,18 -11,9.33 -24,16 -37.67,21 -1,0.33 -2.33,0.67 -3.33,1 -2,-9.33 -1.67,-19 -0.33,-28.33zm-3.33 102.67c-1.33,-3.67 -1.33,-19.67 -1.33,-23.33 0,-0.67 1.33,-1.67 2,-2.33 6,-5.33 28,-7.33 36.33,-7.33 6.33,0 13.33,0.67 19.67,2.33 4.67,1 9.67,2.67 13.67,5.67 3.67,3 4.67,8.67 5,13.67 0.33,17 -13.67,32 -30.67,32.33 -15.33,0.67 -39.67,-6.67 -44.67,-21z"/>
 </g>
</svg>
