<?xml version="1.0" encoding="UTF-8"?>
<!DOCTYPE svg PUBLIC "-//W3C//DTD SVG 1.1//EN" "http://www.w3.org/Graphics/SVG/1.1/DTD/svg11.dtd">
<!-- Creator: CorelDRAW -->
<svg xmlns="http://www.w3.org/2000/svg" xml:space="preserve" width="0.131835in" height="0.131835in" version="1.1" shape-rendering="geometricPrecision" text-rendering="geometricPrecision" image-rendering="optimizeQuality" fill-rule="evenodd" clip-rule="evenodd"
viewBox="0 0 131.83 131.83"
 xmlns:xlink="http://www.w3.org/1999/xlink"
 xmlns:xodm="http://www.corel.com/coreldraw/odm/2003">
 <defs>
    <radialGradient id="id0" gradientUnits="userSpaceOnUse" gradientTransform="matrix(-1.60067E+000 1.62548 -1.62548E+000 -1.60075E+000 315 -106)" cx="105.46" cy="25.05" r="47.01" fx="105.46" fy="25.05">
     <stop offset="0" stop-opacity="1" stop-color="#7DC4E3"/>
     <stop offset="1" stop-opacity="1" stop-color="#2999CE"/>
    </radialGradient>
 </defs>
 <g id="Layer_x0020_1">
  <metadata id="CorelCorpID_0Corel-Layer"/>
  <g id="_105553250225600">
   <circle fill="url(#id0)" cx="65.92" cy="65.92" r="65.92"/>
   <path fill="#332D2B" fill-opacity="0.501961" d="M65.92 131.83c9.23,0 18.02,-1.9 25.99,-5.33 -7.13,2.65 -14.85,4.09 -22.91,4.09 -36.41,0 -65.92,-29.51 -65.92,-65.92 0,-27.17 16.44,-50.5 39.93,-60.59 -25.11,9.31 -43.01,33.48 -43.01,61.83 0,36.41 29.51,65.92 65.92,65.92z"/>
   <path fill="#332D2B" fill-opacity="0.501961" d="M24.86 53.39l13.03 0 17.07 -14.6c4.49,-3.9 7.89,-2.24 7.89,3.44 0,8.79 0,17.58 0,26.37 0,8.79 0,17.58 0,26.37 0,5.67 -3.4,7.34 -7.89,3.44l-17.07 -14.6 -13.03 0c-2.61,0 -4.75,-2.13 -4.75,-4.75l0 -10.46 0 -10.46c0,-2.61 2.14,-4.75 4.75,-4.75zm51.28 0.85c6.52,9.41 6.33,19.19 0.03,28.65 -1.02,1.53 -3.09,1.94 -4.62,0.93 -1.53,-1.02 -1.94,-3.09 -0.93,-4.62 4.79,-7.19 4.99,-14.01 0.03,-21.17 -1.04,-1.51 -0.67,-3.59 0.84,-4.64 1.51,-1.04 3.59,-0.67 4.64,0.84zm8.61 -8.59c11.52,15.15 11.55,30.74 0,45.88 -1.11,1.46 -3.21,1.74 -4.67,0.63 -1.46,-1.11 -1.74,-3.21 -0.63,-4.67 9.73,-12.75 9.7,-25.05 0,-37.81 -1.11,-1.46 -0.83,-3.56 0.63,-4.67 1.46,-1.11 3.56,-0.83 4.67,0.63zm8.82 -10.99c17.89,22.46 17.93,45.41 -0,67.85 -1.15,1.43 -3.25,1.67 -4.68,0.52 -1.43,-1.15 -1.67,-3.25 -0.52,-4.68 15.99,-20.01 15.95,-39.53 -0,-59.55 -1.14,-1.43 -0.91,-3.54 0.53,-4.68 1.43,-1.14 3.54,-0.91 4.68,0.53z"/>
   <path fill="#E4E5E2" d="M26.71 50.61l13.03 0 17.07 -14.6c4.49,-3.9 7.89,-2.24 7.89,3.44 0,8.79 0,17.58 0,26.37 0,8.79 0,17.58 0,26.37 0,5.67 -3.4,7.34 -7.89,3.44l-17.07 -14.6 -13.03 0c-2.61,0 -4.75,-2.13 -4.75,-4.75l0 -10.46 0 -10.46c0,-2.61 2.14,-4.75 4.75,-4.75zm51.28 0.85c6.52,9.41 6.33,19.19 0.03,28.65 -1.02,1.53 -3.09,1.94 -4.62,0.93 -1.53,-1.02 -1.94,-3.09 -0.93,-4.62 4.79,-7.19 4.99,-14.01 0.03,-21.17 -1.04,-1.51 -0.67,-3.59 0.84,-4.64 1.51,-1.04 3.59,-0.67 4.64,0.84zm8.61 -8.59c11.52,15.15 11.55,30.74 0,45.88 -1.11,1.46 -3.21,1.74 -4.67,0.63 -1.46,-1.11 -1.74,-3.21 -0.63,-4.67 9.73,-12.75 9.7,-25.05 0,-37.81 -1.11,-1.46 -0.83,-3.56 0.63,-4.67 1.46,-1.11 3.56,-0.83 4.67,0.63zm8.82 -10.99c17.89,22.46 17.93,45.41 -0,67.85 -1.15,1.43 -3.25,1.67 -4.68,0.52 -1.43,-1.15 -1.67,-3.25 -0.52,-4.68 15.99,-20.01 15.95,-39.53 -0,-59.55 -1.14,-1.43 -0.91,-3.54 0.53,-4.68 1.43,-1.14 3.54,-0.91 4.68,0.53z"/>
   <path fill="#B6B7B7" d="M40.2 50.22l16.62 -14.21c1.16,-1 2.24,-1.64 3.21,-1.93 -0.71,0.35 -1.46,0.86 -2.24,1.55l-17.07 14.6 -0.52 0zm22.6 47.07c-1.43,0.91 -3.54,0.44 -5.98,-1.68l-17.07 -14.6 -13.03 0c-2.61,0 -4.75,-2.13 -4.75,-4.75l0 -10.46 0 -10.46c0,-2.18 1.49,-4.03 3.5,-4.58 -1.5,0.8 -2.53,2.38 -2.53,4.19l0 10.46 0 10.46c0,2.61 2.14,4.75 4.75,4.75l13.03 0 17.07 14.6c1.93,1.68 3.67,2.33 5.01,2.07zm14.16 -16.17c-1.07,0.63 -2.45,0.64 -3.55,-0.09 -1.53,-1.02 -1.94,-3.09 -0.93,-4.62 4.79,-7.19 4.99,-14.01 0.03,-21.17 -1.04,-1.51 -0.67,-3.59 0.84,-4.64 0.36,-0.25 0.76,-0.42 1.16,-0.51l-0.19 0.12c-1.51,1.05 -1.89,3.13 -0.84,4.64 4.96,7.16 4.76,13.98 -0.03,21.17 -1.02,1.53 -0.6,3.6 0.93,4.62 0.79,0.52 1.72,0.67 2.58,0.48zm8.7 8.46c-1.13,0.68 -2.62,0.64 -3.73,-0.21 -1.46,-1.11 -1.74,-3.21 -0.63,-4.67 9.73,-12.75 9.7,-25.05 0,-37.81 -1.11,-1.46 -0.83,-3.56 0.63,-4.67 0.39,-0.3 0.83,-0.5 1.28,-0.6l-0.31 0.21c-1.46,1.11 -1.74,3.2 -0.63,4.67 9.7,12.76 9.73,25.06 0,37.81 -1.11,1.46 -0.83,3.56 0.63,4.67 0.81,0.62 1.83,0.81 2.76,0.59zm8.86 10.93c-1.16,0.69 -2.67,0.63 -3.78,-0.26 -1.43,-1.15 -1.67,-3.25 -0.52,-4.68 15.99,-20.01 15.95,-39.53 -0,-59.55 -1.14,-1.43 -0.91,-3.54 0.53,-4.68 0.41,-0.32 0.87,-0.54 1.34,-0.65 -0.13,0.07 -0.26,0.17 -0.37,0.26 -1.44,1.15 -1.67,3.25 -0.53,4.68 15.95,20.02 16,39.54 0,59.55 -1.15,1.43 -0.91,3.54 0.52,4.68 0.82,0.66 1.86,0.86 2.81,0.64z"/>
  </g>
 </g>
</svg>
