<svg xmlns="http://www.w3.org/2000/svg" width="512" height="512" viewBox="0 0 14 14"><g fill="none" fill-rule="evenodd" clip-rule="evenodd"><path fill="#8fbffa" d="M11.13 1.926a78 78 0 0 0-8.26 0A2.41 2.41 0 0 0 .581 4.14a37 37 0 0 0 0 5.722a2.41 2.41 0 0 0 2.287 2.213c2.804.145 5.458.145 8.262 0a2.41 2.41 0 0 0 2.288-2.213c.147-1.932.147-3.79 0-5.722a2.41 2.41 0 0 0-2.288-2.213"/><path fill="#2859c5" d="M6.692 5.534c0 .966-.543 1.509-1.508 1.509c-.966 0-1.509-.543-1.509-1.509s.543-1.508 1.509-1.508s1.508.543 1.508 1.508m2.445-.417a.625.625 0 1 0 0 1.25h1.511a.625.625 0 1 0 0-1.25zm0 2.516a.625.625 0 1 0 0 1.25h1.511a.625.625 0 1 0 0-1.25zm-3.953.159c1.284 0 2.244.746 2.444 1.786c.042.222-.146.408-.372.408H3.112c-.226 0-.414-.186-.372-.408c.2-1.04 1.16-1.786 2.444-1.786"/></g></svg>